REM DIRINDEX 1\2,1\3,1\4,1\5
REM DIRNAME folder01,folder02,folder03,folder04,folder05
TITLE ""
FILE "1Q_t_0323-0332.mp3" MP3
  TRACK 01 AUDIO
    TITLE "3:cjc004_1870"
    INDEX 01 00:00:00
  TRACK 02 AUDIO
    TITLE "0:"
    INDEX 01 00:01:03
  TRACK 03 AUDIO
    TITLE "4:cjc004_1871"
    INDEX 01 00:01:28
  TRACK 04 AUDIO
    TITLE "0:"
    INDEX 01 00:02:45
  TRACK 05 AUDIO
    TITLE "5:cjc004_1872"
    INDEX 01 00:02:71
  TRACK 06 AUDIO
    TITLE "0:"
    INDEX 01 00:07:58
  TRACK 07 AUDIO
    TITLE "3:cjc004_1873"
    INDEX 01 00:08:36
  TRACK 08 AUDIO
    TITLE "0:"
    INDEX 01 00:09:51
  TRACK 09 AUDIO
    TITLE "4:cjc004_1874"
    INDEX 01 00:10:04
  TRACK 10 AUDIO
    TITLE "0:"
    INDEX 01 00:12:03
  TRACK 11 AUDIO
    TITLE "5:cjc004_1875"
    INDEX 01 00:12:26
  TRACK 12 AUDIO
    TITLE "0:"
    INDEX 01 00:16:22
  TRACK 13 AUDIO
    TITLE "3:cjc004_1876"
    INDEX 01 00:17:04
  TRACK 14 AUDIO
    TITLE "0:"
    INDEX 01 00:18:15
  TRACK 15 AUDIO
    TITLE "4:cjc004_1877"
    INDEX 01 00:18:42
  TRACK 16 AUDIO
    TITLE "0:"
    INDEX 01 00:19:67
  TRACK 17 AUDIO
    TITLE "5:cjc004_1878"
    INDEX 01 00:20:10
  TRACK 18 AUDIO
    TITLE "0:"
    INDEX 01 00:25:72
  TRACK 19 AUDIO
    TITLE "3:cjc004_1879"
    INDEX 01 00:26:50
  TRACK 20 AUDIO
    TITLE "0:"
    INDEX 01 00:27:69
  TRACK 21 AUDIO
    TITLE "4:cjc004_1880"
    INDEX 01 00:28:23
  TRACK 22 AUDIO
    TITLE "0:"
    INDEX 01 00:29:40
  TRACK 23 AUDIO
    TITLE "5:cjc004_1881"
    INDEX 01 00:29:64
  TRACK 24 AUDIO
    TITLE "0:"
    INDEX 01 00:34:63
  TRACK 25 AUDIO
    TITLE "3:cjc004_1882"
    INDEX 01 00:35:39
  TRACK 26 AUDIO
    TITLE "0:"
    INDEX 01 00:36:60
  TRACK 27 AUDIO
    TITLE "4:cjc004_1883"
    INDEX 01 00:37:16
  TRACK 28 AUDIO
    TITLE "0:"
    INDEX 01 00:38:28
  TRACK 29 AUDIO
    TITLE "5:cjc004_1884"
    INDEX 01 00:38:57
  TRACK 30 AUDIO
    TITLE "0:"
    INDEX 01 00:44:18
  TRACK 31 AUDIO
    TITLE "3:cjc004_1885"
    INDEX 01 00:44:73
  TRACK 32 AUDIO
    TITLE "0:"
    INDEX 01 00:46:19
  TRACK 33 AUDIO
    TITLE "4:cjc004_1886"
    INDEX 01 00:46:45
  TRACK 34 AUDIO
    TITLE "0:"
    INDEX 01 00:48:04
  TRACK 35 AUDIO
    TITLE "5:cjc004_1887"
    INDEX 01 00:48:30
  TRACK 36 AUDIO
    TITLE "0:"
    INDEX 01 00:52:55
  TRACK 37 AUDIO
    TITLE "3:cjc004_1888"
    INDEX 01 00:53:31
  TRACK 38 AUDIO
    TITLE "0:"
    INDEX 01 00:54:36
  TRACK 39 AUDIO
    TITLE "4:cjc004_1889"
    INDEX 01 00:54:62
  TRACK 40 AUDIO
    TITLE "0:"
    INDEX 01 00:57:48
  TRACK 41 AUDIO
    TITLE "5:cjc004_1890"
    INDEX 01 00:58:03
  TRACK 42 AUDIO
    TITLE "0:"
    INDEX 01 01:02:24
  TRACK 43 AUDIO
    TITLE "3:cjc004_1891"
    INDEX 01 01:03:02
  TRACK 44 AUDIO
    TITLE "0:"
    INDEX 01 01:04:03
  TRACK 45 AUDIO
    TITLE "4:cjc004_1892"
    INDEX 01 01:04:33
  TRACK 46 AUDIO
    TITLE "0:"
    INDEX 01 01:05:21
  TRACK 47 AUDIO
    TITLE "5:cjc004_1893"
    INDEX 01 01:05:48
  TRACK 48 AUDIO
    TITLE "0:"
    INDEX 01 01:09:24
  TRACK 49 AUDIO
    TITLE "3:cjc004_1894"
    INDEX 01 01:10:02
  TRACK 50 AUDIO
    TITLE "0:"
    INDEX 01 01:11:02
  TRACK 51 AUDIO
    TITLE "4:cjc004_1895"
    INDEX 01 01:11:29
  TRACK 52 AUDIO
    TITLE "0:"
    INDEX 01 01:12:40
  TRACK 53 AUDIO
    TITLE "5:cjc004_1896"
    INDEX 01 01:12:62
  TRACK 54 AUDIO
    TITLE "0:"
    INDEX 01 01:17:57
  TRACK 55 AUDIO
    TITLE "3:cjc004_1897"
    INDEX 01 01:18:37
  TRACK 56 AUDIO
    TITLE "0:"
    INDEX 01 01:19:54
  TRACK 57 AUDIO
    TITLE "4:cjc004_1898"
    INDEX 01 01:20:06
  TRACK 58 AUDIO
    TITLE "0:"
    INDEX 01 01:20:69
  TRACK 59 AUDIO
    TITLE "5:cjc004_1899"
    INDEX 01 01:21:23
  TRACK 60 AUDIO
    TITLE "0:"
    INDEX 01 01:26:13
